<svg aria-hidden="true" style="position: absolute; width: 0; height: 0; overflow: hidden;" version="1.1" xmlns="http://www.w3.org/2000/svg" xmlns:xlink="http://www.w3.org/1999/xlink">
<defs>

<symbol id="modal-envelope" viewBox="0 0 43 32">
<path d="M37.333 0h-32c-2.2 0-3.98 1.8-3.98 4l-0.020 24c0 2.2 1.8 4 4 4h32c2.2 0 4-1.8 4-4v-24c0-2.2-1.8-4-4-4zM36.533 8.5l-14.14 8.84c-0.64 0.4-1.48 0.4-2.12 0l-14.14-8.84c-0.5-0.32-0.8-0.86-0.8-1.44 0-1.34 1.46-2.14 2.6-1.44l13.4 8.38 13.4-8.38c1.14-0.7 2.6 0.1 2.6 1.44 0 0.58-0.3 1.12-0.8 1.44z"></path>
</symbol>

<symbol id="modal-name" viewBox="0 0 32 32">
<path d="M16 16c4.42 0 8-3.58 8-8s-3.58-8-8-8c-4.42 0-8 3.58-8 8s3.58 8 8 8zM16 20c-5.34 0-16 2.68-16 8v2c0 1.1 0.9 2 2 2h28c1.1 0 2-0.9 2-2v-2c0-5.32-10.66-8-16-8z"></path>
</symbol>

<symbol id="modal-tell" viewBox="0 0 36 32">
<path d="M27.992 18.245l-3.676-0.42c-0.883-0.101-1.751 0.203-2.374 0.825l-2.663 2.663c-4.096-2.084-7.454-5.428-9.538-9.538l2.678-2.678c0.622-0.622 0.926-1.491 0.825-2.374l-0.42-3.647c-0.174-1.462-1.404-2.562-2.88-2.562h-2.504c-1.636 0-2.996 1.361-2.895 2.996 0.767 12.361 10.653 22.231 22.999 22.999 1.635 0.101 2.996-1.259 2.996-2.895v-2.504c0.014-1.462-1.086-2.692-2.547-2.866z"></path>
</symbol>

</defs>
</svg>
