<svg width="18" height="16" viewBox="0 0 18 16" fill="none" xmlns="http://www.w3.org/2000/svg">
<g filter="url(#filter0_d)">
<path d="M13.996 9.12256L12.1579 8.91269C11.7164 8.86203 11.2822 9.01401 10.971 9.32519L9.63945 10.6568C7.59144 9.61466 5.91251 7.94296 4.87041 5.8877L6.20922 4.54888C6.5204 4.2377 6.67237 3.80349 6.62171 3.36205L6.41185 1.53836C6.325 0.807445 5.70988 0.257446 4.97173 0.257446H3.71976C2.902 0.257446 2.22175 0.937708 2.2724 1.75547C2.65595 7.93572 7.59868 12.8712 13.7717 13.2548C14.5894 13.3054 15.2697 12.6252 15.2697 11.8074V10.5555C15.2769 9.82453 14.7269 9.2094 13.996 9.12256Z" fill="#212121"/>
</g>
<defs>
<filter id="filter0_d" x="-1.73026" y="0.257446" width="21" height="21" filterUnits="userSpaceOnUse" color-interpolation-filters="sRGB">
<feFlood flood-opacity="0" result="BackgroundImageFix"/>
<feColorMatrix in="SourceAlpha" type="matrix" values="0 0 0 0 0 0 0 0 0 0 0 0 0 0 0 0 0 0 127 0"/>
<feOffset dy="4"/>
<feGaussianBlur stdDeviation="2"/>
<feColorMatrix type="matrix" values="0 0 0 0 0 0 0 0 0 0 0 0 0 0 0 0 0 0 0.25 0"/>
<feBlend mode="normal" in2="BackgroundImageFix" result="effect1_dropShadow"/>
<feBlend mode="normal" in="SourceGraphic" in2="effect1_dropShadow" result="shape"/>
</filter>
</defs>
</svg>
